<svg xmlns="http://www.w3.org/2000/svg" viewBox="0 0 24 24"><path fill="#f44336" d="M19 12c0 1.97-.838 3.862-2.3 5.188a1.495 1.495 0 0 1-2.118-.102 1.498 1.498 0 0 1 .103-2.118 4.01 4.01 0 0 0 .005-5.933 1.5 1.5 0 1 1 2.014-2.223A7.012 7.012 0 0 1 19 12zm1.514-8.466a1.5 1.5 0 1 0-2.127 2.117A8.936 8.936 0 0 1 21 12c0 2.396-.93 4.65-2.618 6.347a1.5 1.5 0 1 0 2.127 2.116A11.927 11.927 0 0 0 24 12c0-3.2-1.238-6.207-3.486-8.466zM12 10.187a1.813 1.813 0 1 0 0 3.627 1.813 1.813 0 0 0 0-3.627zM9.42 6.914A1.5 1.5 0 0 0 7.3 6.81a7.004 7.004 0 0 0-.003 10.377 1.5 1.5 0 0 0 2.013-2.224 4.002 4.002 0 0 1 .006-5.93 1.5 1.5 0 0 0 .103-2.12zM3 12c0-2.396.93-4.65 2.618-6.346a1.5 1.5 0 1 0-2.126-2.116A11.918 11.918 0 0 0 0 12c0 3.2 1.238 6.206 3.486 8.466a1.496 1.496 0 0 0 2.12.005 1.5 1.5 0 0 0 .005-2.12A8.947 8.947 0 0 1 3 12z"/></svg>
